<?xml version="1.0" encoding="UTF-8"?>
<svg width="130px" height="40px" viewBox="0 0 130 40" version="1.1" xmlns="http://www.w3.org/2000/svg" xmlns:xlink="http://www.w3.org/1999/xlink">
    <!-- Generator: Sketch 48 (47235) - http://www.bohemiancoding.com/sketch -->
    <title>as</title>
    <desc>Created with Sketch.</desc>
    <defs></defs>
    <g id="apple" stroke="none" stroke-width="1" fill="none" fill-rule="evenodd">
        <g id="as">
            <rect id="background" fill="#454545" x="0" y="0" width="130" height="40" rx="6"></rect>
            <g id="icon" transform="translate(8.000000, 6.000000)" fill="#FFFFFF">
                <path d="M14.1677308,4.17806316 C15.0338462,3.07894737 15.6649231,1.56684211 15.5020385,0.0421473684 C14.2081154,0.0905894737 12.6673077,0.909726316 11.7495,2.01595789 C10.9226923,2.96892632 10.2049231,4.54069474 10.4106154,6.01941053 C11.8170769,6.11410526 13.2628462,5.28456842 14.1677308,4.17806316" id="Fill-1"></path>
                <path d="M17.9143462,16.1944421 L17.8936154,16.1536632 C17.4905769,15.3285053 17.3069615,14.0386316 17.4612308,12.9937053 L17.4612308,12.9548421 L17.4623077,12.9548421 C17.6238462,11.5864211 18.4907692,10.1862526 19.1837692,9.67829474 C19.1921154,9.67227368 19.2015385,9.66515789 19.2109615,9.65749474 L19.2109615,9.65448421 L19.2128462,9.65448421 C19.3665769,9.48206316 19.8046154,9.12463158 20.1005,8.90787368 C19.0076923,7.27343158 17.2183846,6.39189474 15.3962308,6.36343158 C13.5587308,6.20661053 11.6517692,7.54574737 10.6235769,7.51509474 C9.62876923,7.54574737 8.12592308,6.33715789 6.54015385,6.41351579 L6.52453846,6.41105263 C6.489,6.41105263 6.20334615,6.4272 6.20334615,6.4272 C4.10146154,6.47974737 2.23811538,7.73896842 1.18003846,9.64818947 L1.18003846,9.65448421 L1.17357692,9.65448421 L1.17357692,9.64818947 C0.754923077,10.3362316 0.252807692,11.9400211 0.177961538,12.9548421 L0.177961538,13.0087579 C0.0767307692,13.6527368 0.174461538,15.3690105 0.288346154,16.1944421 C0.293192308,16.2089474 0.294269231,16.2237263 0.295346154,16.2354947 L0.297769231,16.2338526 C0.386615385,17.0565474 0.797461538,18.6463789 1.10573077,19.4236421 L1.10573077,19.4304842 L1.10411538,19.4304842 C1.39973077,20.2895789 2.22626923,21.9007579 2.75961538,22.7242737 L2.75961538,22.7302947 L2.76526923,22.7302947 C3.84273077,24.3028842 5.11107692,26.0700632 6.78326923,25.9939789 C8.39865385,25.9315789 8.99338462,24.9030737 10.9391154,24.9192211 C12.8837692,24.9030737 13.4219615,25.9449895 15.1261923,25.9523789 C16.8635385,25.8765684 17.9401923,24.3050737 19.0181923,22.7302947 C19.5458846,21.9188211 20.3737692,20.3574526 20.6664231,19.4304842 L20.6704615,19.4304842 C20.7033077,19.3327789 20.7525769,19.1819789 20.7873077,19.0725053 C19.6446923,18.7429895 18.3628846,17.2133684 17.9143462,16.1944421" id="Fill-3"></path>
            </g>
            <g id="download-on-the-app-store" transform="translate(39.000000, 6.000000)"></g>
            <g id="Download_on_the_App_Store_Badge" transform="translate(38.000000, 5.000000)" fill="#FFFFFF" fill-rule="nonzero">
                <g id="Group" transform="translate(0.444444, 12.333333)">
                    <path d="M11.2137037,13.0038519 L9.02681481,13.0038519 L7.82888889,9.23962963 L3.66503704,9.23962963 L2.52392593,13.0038519 L0.394814815,13.0038519 L4.52014815,0.188740741 L7.06814815,0.188740741 L11.2137037,13.0038519 Z M7.46777778,7.66037037 L6.38444444,4.31407407 C6.26985185,3.97222222 6.05511111,3.16718519 5.7382963,1.89992593 L5.69977778,1.89992593 C5.57362963,2.44496296 5.37044444,3.25 5.09118519,4.31407407 L4.02711111,7.66037037 L7.46777778,7.66037037 Z" id="Shape"></path>
                    <path d="M21.8226667,8.26992593 C21.8226667,9.84148148 21.398,11.0837037 20.5486667,11.9956296 C19.7879259,12.8074074 18.8432593,13.2128148 17.7156296,13.2128148 C16.4984444,13.2128148 15.6240741,12.7756296 15.0915556,11.9012593 L15.053037,11.9012593 L15.053037,16.769037 L13,16.769037 L13,6.80525926 C13,5.81725926 12.974,4.80325926 12.9239259,3.76325926 L14.7294815,3.76325926 L14.8440741,5.22792593 L14.8825926,5.22792593 C15.5672593,4.12437037 16.6062963,3.57355556 18.0006667,3.57355556 C19.0907407,3.57355556 20.0007407,4.004 20.7287407,4.86585185 C21.4586667,5.72866667 21.8226667,6.86303704 21.8226667,8.26992593 Z M19.7311111,8.34503704 C19.7311111,7.44562963 19.5288889,6.70414815 19.1225185,6.12059259 C18.6785926,5.512 18.0825185,5.2077037 17.3352593,5.2077037 C16.8287407,5.2077037 16.3684444,5.37718519 15.9572593,5.71133333 C15.5451111,6.04837037 15.2754815,6.48844444 15.1493333,7.03348148 C15.0857778,7.2877037 15.054,7.4957037 15.054,7.65940741 L15.054,9.20014815 C15.054,9.8722963 15.2600741,10.4394815 15.6722222,10.9026667 C16.0843704,11.3658519 16.6197778,11.596963 17.2784444,11.596963 C18.0517037,11.596963 18.6535556,11.2984444 19.084,10.7033333 C19.5154074,10.1072593 19.7311111,9.32148148 19.7311111,8.34503704 Z" id="Shape"></path>
                    <path d="M32.4508889,8.26992593 C32.4508889,9.84148148 32.0262222,11.0837037 31.1759259,11.9956296 C30.4161481,12.8074074 29.4714815,13.2128148 28.3438519,13.2128148 C27.1266667,13.2128148 26.2522963,12.7756296 25.7207407,11.9012593 L25.6822222,11.9012593 L25.6822222,16.769037 L23.6291852,16.769037 L23.6291852,6.80525926 C23.6291852,5.81725926 23.6031852,4.80325926 23.5531111,3.76325926 L25.3586667,3.76325926 L25.4732593,5.22792593 L25.5117778,5.22792593 C26.1954815,4.12437037 27.2345185,3.57355556 28.6298519,3.57355556 C29.718963,3.57355556 30.628963,4.004 31.3588889,4.86585185 C32.0859259,5.72866667 32.4508889,6.86303704 32.4508889,8.26992593 Z M30.3593333,8.34503704 C30.3593333,7.44562963 30.1561481,6.70414815 29.7497778,6.12059259 C29.3058519,5.512 28.7117037,5.2077037 27.9634815,5.2077037 C27.456,5.2077037 26.9966667,5.37718519 26.5845185,5.71133333 C26.1723704,6.04837037 25.9037037,6.48844444 25.7775556,7.03348148 C25.714963,7.2877037 25.6822222,7.4957037 25.6822222,7.65940741 L25.6822222,9.20014815 C25.6822222,9.8722963 25.8882963,10.4394815 26.2985185,10.9026667 C26.7106667,11.3648889 27.2460741,11.596963 27.9066667,11.596963 C28.6799259,11.596963 29.2817778,11.2984444 29.7122222,10.7033333 C30.1436296,10.1072593 30.3593333,9.32148148 30.3593333,8.34503704 Z" id="Shape"></path>
                    <path d="M44.3338519,9.41007407 C44.3338519,10.5001481 43.9554074,11.387037 43.1956296,12.0717037 C42.3607407,12.8199259 41.1984444,13.1935556 39.7048889,13.1935556 C38.3259259,13.1935556 37.2204444,12.9277778 36.3836296,12.3952593 L36.8593333,10.6840741 C37.7606667,11.2291111 38.7496296,11.5025926 39.8271852,11.5025926 C40.6004444,11.5025926 41.2022963,11.3273333 41.6346667,10.9787407 C42.0651111,10.6301481 42.2798519,10.1621481 42.2798519,9.57859259 C42.2798519,9.05859259 42.1026667,8.62044444 41.7473333,8.26511111 C41.3939259,7.90977778 40.8036296,7.57948148 39.9793333,7.27422222 C37.7356296,6.43740741 36.6147407,5.21155556 36.6147407,3.59955556 C36.6147407,2.54607407 37.0076296,1.6822963 37.7943704,1.01014815 C38.5782222,0.337037037 39.624,0.000962962963 40.9317037,0.000962962963 C42.0978519,0.000962962963 43.0665926,0.204148148 43.8398519,0.609555556 L43.3265926,2.28318519 C42.6043704,1.8902963 41.7877778,1.69385185 40.8739259,1.69385185 C40.1517037,1.69385185 39.5874074,1.872 39.182963,2.22637037 C38.8411111,2.54318519 38.6697037,2.92933333 38.6697037,3.38674074 C38.6697037,3.89325926 38.8651852,4.31214815 39.2580741,4.64148148 C39.5999259,4.94577778 40.221037,5.27511111 41.1223704,5.63044444 C42.224963,6.07437037 43.0348148,6.59340741 43.5557778,7.18851852 C44.0748148,7.7817037 44.3338519,8.52414815 44.3338519,9.41007407 Z" id="Shape"></path>
                    <path d="M51.1217778,5.304 L48.8588148,5.304 L48.8588148,9.79044444 C48.8588148,10.9315556 49.2574815,11.5016296 50.0567407,11.5016296 C50.4236296,11.5016296 50.7279259,11.4698519 50.9686667,11.4062963 L51.0254815,12.9653333 C50.621037,13.1165185 50.0885185,13.1925926 49.4288889,13.1925926 C48.6180741,13.1925926 47.9844444,12.9451111 47.527037,12.4511111 C47.0715556,11.9561481 46.8423704,11.1260741 46.8423704,9.95992593 L46.8423704,5.30207407 L45.4942222,5.30207407 L45.4942222,3.76133333 L46.8423704,3.76133333 L46.8423704,2.06940741 L48.8588148,1.46081481 L48.8588148,3.76133333 L51.1217778,3.76133333 L51.1217778,5.304 Z" id="Shape"></path>
                    <path d="M61.3320741,8.30748148 C61.3320741,9.72785185 60.9257037,10.894 60.1148889,11.8059259 C59.2645926,12.7448148 58.136,13.2128148 56.7291111,13.2128148 C55.3732593,13.2128148 54.2937778,12.7631111 53.4887407,11.8637037 C52.6837037,10.9642963 52.2811852,9.82896296 52.2811852,8.46059259 C52.2811852,7.02866667 52.6952593,5.85577778 53.5262963,4.94385185 C54.3554074,4.03096296 55.4743704,3.57451852 56.8812593,3.57451852 C58.2371111,3.57451852 59.3281481,4.02422222 60.1514815,4.92459259 C60.9391852,5.798 61.3320741,6.92562963 61.3320741,8.30748148 Z M59.202,8.37392593 C59.202,7.5217037 59.02,6.79081481 58.6511852,6.18125926 C58.2207407,5.44362963 57.6054074,5.07577778 56.8080741,5.07577778 C55.9828148,5.07577778 55.3559259,5.44459259 54.9254815,6.18125926 C54.5566667,6.79177778 54.3746667,7.53422222 54.3746667,8.41244444 C54.3746667,9.26466667 54.5566667,9.99555556 54.9254815,10.6041481 C55.3694074,11.3417778 55.9895556,11.7096296 56.7897778,11.7096296 C57.5736296,11.7096296 58.188963,11.3340741 58.6328889,10.5848889 C59.0113333,9.96377778 59.202,9.22518519 59.202,8.37392593 Z" id="Shape"></path>
                    <path d="M68.0054074,5.56881481 C67.8022222,5.53125926 67.5855556,5.512 67.3582963,5.512 C66.6360741,5.512 66.0775556,5.78451852 65.6846667,6.33051852 C65.3428148,6.812 65.1714074,7.42059259 65.1714074,8.15533333 L65.1714074,13.0038519 L63.1193333,13.0038519 L63.1385926,6.67333333 C63.1385926,5.6082963 63.1125926,4.63859259 63.0615556,3.76422222 L64.8497778,3.76422222 L64.9248889,5.53222222 L64.9817037,5.53222222 C65.1983704,4.92459259 65.5402222,4.43540741 66.0082222,4.06851852 C66.4656296,3.73822222 66.9596296,3.57355556 67.4921481,3.57355556 C67.6818519,3.57355556 67.8532593,3.58703704 68.0054074,3.61111111 L68.0054074,5.56881481 Z" id="Shape"></path>
                    <path d="M77.1872593,7.94637037 C77.1872593,8.31422222 77.1631852,8.6242963 77.1121481,8.87755556 L70.953037,8.87755556 C70.9771111,9.79044444 71.2746667,10.4885926 71.8466667,10.9700741 C72.3657037,11.4005185 73.0368889,11.6162222 73.8611852,11.6162222 C74.7731111,11.6162222 75.6051111,11.4708148 76.3533333,11.179037 L76.674963,12.6042222 C75.8005926,12.9855556 74.7682963,13.1752593 73.5771111,13.1752593 C72.1442222,13.1752593 71.0194815,12.7534815 70.200963,11.9108889 C69.3843704,11.0682963 68.9751111,9.93681481 68.9751111,8.51740741 C68.9751111,7.124 69.3554815,5.96362963 70.1171852,5.03822222 C70.9145185,4.05022222 71.9920741,3.55622222 73.3479259,3.55622222 C74.6797037,3.55622222 75.6879259,4.05022222 76.3725926,5.03822222 C76.9147407,5.82303704 77.1872593,6.7937037 77.1872593,7.94637037 Z M75.2295556,7.41385185 C75.243037,6.80525926 75.1091852,6.27948148 74.8308889,5.83555556 C74.4755556,5.26451852 73.9295556,4.97948148 73.1948148,4.97948148 C72.5236296,4.97948148 71.9776296,5.25777778 71.5606667,5.8162963 C71.2188148,6.26022222 71.0156296,6.79274074 70.953037,7.41288889 L75.2295556,7.41288889 L75.2295556,7.41385185 Z" id="Shape"></path>
                </g>
                <g id="Group" transform="translate(1.407407, 0.777778)">
                    <path d="M5.82592593,3.86051852 C5.82592593,4.99392593 5.486,5.84711111 4.80711111,6.42007407 C4.1782963,6.94874074 3.28466667,7.21355556 2.12718519,7.21355556 C1.55325926,7.21355556 1.06214815,7.18851852 0.650962963,7.13844444 L0.650962963,0.94562963 C1.18733333,0.858962963 1.76511111,0.814666667 2.38911111,0.814666667 C3.4917037,0.814666667 4.32274074,1.05444444 4.88318519,1.534 C5.51103704,2.07614815 5.82592593,2.85133333 5.82592593,3.86051852 Z M4.76185185,3.88844444 C4.76185185,3.1537037 4.56733333,2.59037037 4.1782963,2.19748148 C3.78925926,1.80555556 3.22111111,1.60911111 2.47288889,1.60911111 C2.15511111,1.60911111 1.88451852,1.6302963 1.66014815,1.67459259 L1.66014815,6.38251852 C1.78437037,6.40177778 2.01162963,6.41044444 2.34192593,6.41044444 C3.11422222,6.41044444 3.7102963,6.1957037 4.13014815,5.76622222 C4.55,5.33674074 4.76185185,4.71081481 4.76185185,3.88844444 Z" id="Shape"></path>
                    <path d="M11.4679259,4.85044444 C11.4679259,5.54859259 11.2685926,6.12059259 10.8699259,6.56933333 C10.452,7.03059259 9.8982963,7.26074074 9.20688889,7.26074074 C8.54051852,7.26074074 8.00992593,7.04022222 7.61414815,6.59725926 C7.21933333,6.15525926 7.02192593,5.5977037 7.02192593,4.92555556 C7.02192593,4.22259259 7.22511111,3.64577778 7.63340741,3.198 C8.0417037,2.75022222 8.59059259,2.52585185 9.282,2.52585185 C9.94837037,2.52585185 10.4837778,2.74637037 10.8891852,3.18837037 C11.2743704,3.61785185 11.4679259,4.17251852 11.4679259,4.85044444 Z M10.4211852,4.88318519 C10.4211852,4.4642963 10.3306667,4.10511111 10.1505926,3.80562963 C9.93874074,3.44355556 9.63733333,3.26251852 9.24540741,3.26251852 C8.84,3.26251852 8.53185185,3.44355556 8.32,3.80562963 C8.13896296,4.10511111 8.04940741,4.47007407 8.04940741,4.90148148 C8.04940741,5.32037037 8.13992593,5.67955556 8.32,5.97903704 C8.53859259,6.34111111 8.84288889,6.52214815 9.23577778,6.52214815 C9.62096296,6.52214815 9.92333333,6.33822222 10.140963,5.96940741 C10.3277778,5.66414815 10.4211852,5.30207407 10.4211852,4.88318519 Z" id="Shape"></path>
                    <path d="M19.032963,2.6182963 L17.6125926,7.1577037 L16.6881481,7.1577037 L16.0997778,5.18651852 C15.9505185,4.69444444 15.8291852,4.20525926 15.7348148,3.71992593 L15.7165185,3.71992593 C15.6288889,4.21874074 15.5075556,4.70696296 15.3515556,5.18651852 L14.7265926,7.1577037 L13.7915556,7.1577037 L12.4559259,2.6182963 L13.493037,2.6182963 L14.0062963,4.7762963 C14.1305185,5.28666667 14.2325926,5.77296296 14.3144444,6.23325926 L14.3327407,6.23325926 C14.4078519,5.85385185 14.5320741,5.37044444 14.7073333,4.78592593 L15.3515556,2.61925926 L16.1739259,2.61925926 L16.7911852,4.7397037 C16.9404444,5.25681481 17.0617778,5.75466667 17.1551852,6.23422222 L17.1831111,6.23422222 C17.2514815,5.76718519 17.3545185,5.26933333 17.4912593,4.7397037 L18.0420741,2.61925926 L19.032963,2.61925926 L19.032963,2.6182963 Z" id="Shape"></path>
                    <path d="M24.2647407,7.1577037 L23.2555556,7.1577037 L23.2555556,4.5577037 C23.2555556,3.75651852 22.9512593,3.35592593 22.3407407,3.35592593 C22.0412593,3.35592593 21.7995556,3.4657037 21.6117778,3.68622222 C21.4259259,3.90674074 21.3315556,4.16674074 21.3315556,4.4642963 L21.3315556,7.15674074 L20.3223704,7.15674074 L20.3223704,3.91540741 C20.3223704,3.51674074 20.3098519,3.08437037 20.2857778,2.61637037 L21.1726667,2.61637037 L21.2198519,3.32607407 L21.2477778,3.32607407 C21.3652593,3.10555556 21.5405185,2.92355556 21.7706667,2.77814815 C22.0441481,2.60866667 22.3503704,2.52296296 22.6854815,2.52296296 C23.1091852,2.52296296 23.4616296,2.6597037 23.7418519,2.93414815 C24.0904444,3.27022222 24.2647407,3.77192593 24.2647407,4.4382963 L24.2647407,7.1577037 Z" id="Shape"></path>
                    <polygon id="Shape" points="27.0477037 7.1577037 26.0394815 7.1577037 26.0394815 0.535407407 27.0477037 0.535407407"></polygon>
                    <path d="M32.9891852,4.85044444 C32.9891852,5.54859259 32.7898519,6.12059259 32.3911852,6.56933333 C31.9732593,7.03059259 31.4185926,7.26074074 30.7281481,7.26074074 C30.0608148,7.26074074 29.5302222,7.04022222 29.1354074,6.59725926 C28.7405926,6.15525926 28.5431852,5.5977037 28.5431852,4.92555556 C28.5431852,4.22259259 28.7463704,3.64577778 29.1546667,3.198 C29.562963,2.75022222 30.1118519,2.52585185 30.8022963,2.52585185 C31.4696296,2.52585185 32.0040741,2.74637037 32.4104444,3.18837037 C32.7956296,3.61785185 32.9891852,4.17251852 32.9891852,4.85044444 Z M31.9414815,4.88318519 C31.9414815,4.4642963 31.850963,4.10511111 31.6708889,3.80562963 C31.46,3.44355556 31.1576296,3.26251852 30.7666667,3.26251852 C30.3602963,3.26251852 30.0521481,3.44355556 29.8412593,3.80562963 C29.6602222,4.10511111 29.5706667,4.47007407 29.5706667,4.90148148 C29.5706667,5.32037037 29.6611852,5.67955556 29.8412593,5.97903704 C30.0598519,6.34111111 30.3641481,6.52214815 30.757037,6.52214815 C31.1422222,6.52214815 31.4436296,6.33822222 31.6612593,5.96940741 C31.849037,5.66414815 31.9414815,5.30207407 31.9414815,4.88318519 Z" id="Shape"></path>
                    <path d="M37.8733333,7.1577037 L36.9671852,7.1577037 L36.8920741,6.63481481 L36.8641481,6.63481481 C36.5540741,7.05177778 36.1120741,7.26074074 35.5381481,7.26074074 C35.1096296,7.26074074 34.762963,7.12303704 34.502,6.84955556 C34.2651111,6.60111111 34.1466667,6.292 34.1466667,5.92511111 C34.1466667,5.37044444 34.3777778,4.9477037 34.8428889,4.65496296 C35.307037,4.36222222 35.9599259,4.21874074 36.8005926,4.22548148 L36.8005926,4.14074074 C36.8005926,3.54274074 36.4866667,3.24422222 35.8578519,3.24422222 C35.4100741,3.24422222 35.0152593,3.35688889 34.6743704,3.5802963 L34.4692593,2.91777778 C34.891037,2.65681481 35.412,2.52585185 36.0263704,2.52585185 C37.2127407,2.52585185 37.8078519,3.15177778 37.8078519,4.40362963 L37.8078519,6.07533333 C37.8078519,6.52888889 37.83,6.89 37.8733333,7.1577037 Z M36.8256296,5.5977037 L36.8256296,4.89762963 C35.7124444,4.87837037 35.1558519,5.18362963 35.1558519,5.81244444 C35.1558519,6.04933333 35.2194074,6.22651852 35.3494074,6.34496296 C35.4794074,6.46340741 35.645037,6.52214815 35.8424444,6.52214815 C36.0639259,6.52214815 36.270963,6.45185185 36.4597037,6.31222222 C36.6494074,6.17162963 36.7659259,5.99348148 36.8092593,5.77488889 C36.8198519,5.72577778 36.8256296,5.66607407 36.8256296,5.5977037 Z" id="Shape"></path>
                    <path d="M43.6077778,7.1577037 L42.7122222,7.1577037 L42.665037,6.42874074 L42.6371111,6.42874074 C42.3511111,6.98340741 41.8638519,7.26074074 41.1791852,7.26074074 C40.6322222,7.26074074 40.1767407,7.046 39.8156296,6.61651852 C39.4545185,6.18703704 39.2744444,5.62948148 39.2744444,4.94481481 C39.2744444,4.21007407 39.4699259,3.61496296 39.8628148,3.16044444 C40.2431852,2.73674074 40.7092593,2.52488889 41.2639259,2.52488889 C41.8734815,2.52488889 42.3000741,2.73 42.5427407,3.14118519 L42.562,3.14118519 L42.562,0.535407407 L43.5721481,0.535407407 L43.5721481,5.93474074 C43.5721481,6.37674074 43.5837037,6.78407407 43.6077778,7.1577037 Z M42.562,5.24333333 L42.562,4.48644444 C42.562,4.35548148 42.5523704,4.24955556 42.5340741,4.16866667 C42.4772593,3.926 42.354963,3.72185185 42.1691111,3.55718519 C41.9813333,3.39251852 41.755037,3.3097037 41.4940741,3.3097037 C41.1175556,3.3097037 40.8228889,3.45896296 40.6062222,3.75844444 C40.3914815,4.05792593 40.2826667,4.44022222 40.2826667,4.90725926 C40.2826667,5.356 40.3857037,5.72 40.5927407,6.00022222 C40.8113333,6.29874074 41.106,6.448 41.4748148,6.448 C41.8060741,6.448 42.0708889,6.32377778 42.2721481,6.07437037 C42.4666667,5.84422222 42.562,5.56688889 42.562,5.24333333 Z" id="Shape"></path>
                    <path d="M52.2388148,4.85044444 C52.2388148,5.54859259 52.0394815,6.12059259 51.6408148,6.56933333 C51.2228889,7.03059259 50.6701481,7.26074074 49.9777778,7.26074074 C49.3123704,7.26074074 48.7817778,7.04022222 48.385037,6.59725926 C47.9902222,6.15525926 47.7928148,5.5977037 47.7928148,4.92555556 C47.7928148,4.22259259 47.996,3.64577778 48.4042963,3.198 C48.8125926,2.75022222 49.3614815,2.52585185 50.0538519,2.52585185 C50.7192593,2.52585185 51.2556296,2.74637037 51.6600741,3.18837037 C52.0452593,3.61785185 52.2388148,4.17251852 52.2388148,4.85044444 Z M51.193037,4.88318519 C51.193037,4.4642963 51.1025185,4.10511111 50.9224444,3.80562963 C50.7096296,3.44355556 50.4091852,3.26251852 50.0162963,3.26251852 C49.6118519,3.26251852 49.3037037,3.44355556 49.0908889,3.80562963 C48.9098519,4.10511111 48.8202963,4.47007407 48.8202963,4.90148148 C48.8202963,5.32037037 48.9108148,5.67955556 49.0908889,5.97903704 C49.3094815,6.34111111 49.6137778,6.52214815 50.0066667,6.52214815 C50.3918519,6.52214815 50.6951852,6.33822222 50.9128148,5.96940741 C51.0986667,5.66414815 51.193037,5.30207407 51.193037,4.88318519 Z" id="Shape"></path>
                    <path d="M57.6651111,7.1577037 L56.6568889,7.1577037 L56.6568889,4.5577037 C56.6568889,3.75651852 56.3525926,3.35592593 55.7411111,3.35592593 C55.4416296,3.35592593 55.1999259,3.4657037 55.0131111,3.68622222 C54.8262963,3.90674074 54.7328889,4.16674074 54.7328889,4.4642963 L54.7328889,7.15674074 L53.7227407,7.15674074 L53.7227407,3.91540741 C53.7227407,3.51674074 53.7111852,3.08437037 53.6871111,2.61637037 L54.573037,2.61637037 L54.6202222,3.32607407 L54.6481481,3.32607407 C54.7665926,3.10555556 54.9418519,2.92355556 55.171037,2.77814815 C55.4454815,2.60866667 55.7507407,2.52296296 56.0868148,2.52296296 C56.5095556,2.52296296 56.862,2.6597037 57.1422222,2.93414815 C57.4917778,3.27022222 57.6651111,3.77192593 57.6651111,4.4382963 L57.6651111,7.1577037 Z" id="Shape"></path>
                    <path d="M64.4568889,3.37422222 L63.3456296,3.37422222 L63.3456296,5.57940741 C63.3456296,6.13985185 63.543037,6.42007407 63.934,6.42007407 C64.115037,6.42007407 64.2652593,6.40466667 64.3837037,6.37288889 L64.4097037,7.13844444 C64.2103704,7.21355556 63.9484444,7.25111111 63.6258519,7.25111111 C63.2271852,7.25111111 62.9171111,7.12977778 62.6927407,6.88711111 C62.4674074,6.64444444 62.3557037,6.23614815 62.3557037,5.66318519 L62.3557037,3.37422222 L61.6922222,3.37422222 L61.6922222,2.6182963 L62.3557037,2.6182963 L62.3557037,1.7862963 L63.3446667,1.48777778 L63.3446667,2.61733333 L64.4559259,2.61733333 L64.4559259,3.37422222 L64.4568889,3.37422222 Z" id="Shape"></path>
                    <path d="M69.7994074,7.1577037 L68.7892593,7.1577037 L68.7892593,4.57696296 C68.7892593,3.76325926 68.484963,3.35592593 67.8754074,3.35592593 C67.4074074,3.35592593 67.0877037,3.59185185 66.9124444,4.0637037 C66.8825926,4.16288889 66.8652593,4.28422222 66.8652593,4.42674074 L66.8652593,7.15674074 L65.857037,7.15674074 L65.857037,0.535407407 L66.8652593,0.535407407 L66.8652593,3.27118519 L66.8845185,3.27118519 C67.2022963,2.77333333 67.6577778,2.52488889 68.2480741,2.52488889 C68.666,2.52488889 69.0117037,2.66162963 69.2861481,2.93607407 C69.628,3.27792593 69.7994074,3.78637037 69.7994074,4.45851852 L69.7994074,7.1577037 Z" id="Shape"></path>
                    <path d="M75.3104444,4.67325926 C75.3104444,4.8542963 75.296963,5.00644444 75.2728889,5.13066667 L72.2462963,5.13066667 C72.2597778,5.57940741 72.4042222,5.92125926 72.6844444,6.15814815 C72.9405926,6.37 73.2708889,6.47592593 73.6753333,6.47592593 C74.1231111,6.47592593 74.5314074,6.40466667 74.8992593,6.26118519 L75.0571852,6.96222222 C74.6267407,7.14903704 74.1202222,7.24244444 73.5337778,7.24244444 C72.8308148,7.24244444 72.2771111,7.03540741 71.8765185,6.62133333 C71.474,6.20725926 71.2746667,5.65162963 71.2746667,4.95444444 C71.2746667,4.26977778 71.4605185,3.6997037 71.8351111,3.24518519 C72.2260741,2.75985185 72.7547407,2.51718519 73.4220741,2.51718519 C74.074963,2.51718519 74.5708889,2.75985185 74.906,3.24518519 C75.1765926,3.63037037 75.3104444,4.10703704 75.3104444,4.67325926 Z M74.3474815,4.4122963 C74.3551852,4.11281481 74.2887407,3.85474074 74.152,3.63711111 C73.9767407,3.35688889 73.71,3.2162963 73.3488889,3.2162963 C73.0195556,3.2162963 72.7508889,3.35303704 72.5457778,3.62748148 C72.3782222,3.84607407 72.279037,4.10703704 72.2462963,4.4122963 L74.3474815,4.4122963 Z" id="Shape"></path>
                </g>
            </g>
        </g>
    </g>
</svg>