<?xml version="1.0" encoding="UTF-8"?>
<svg width="130px" height="40px" viewBox="0 0 130 40" version="1.1" xmlns="http://www.w3.org/2000/svg" xmlns:xlink="http://www.w3.org/1999/xlink">
    <!-- Generator: Sketch 48 (47235) - http://www.bohemiancoding.com/sketch -->
    <title>gp</title>
    <desc>Created with Sketch.</desc>
    <defs>
        <linearGradient x1="91.488428%" y1="4.9481245%" x2="-38.3517333%" y2="71.9074222%" id="linearGradient-1">
            <stop stop-color="#00A0FF" offset="0%"></stop>
            <stop stop-color="#00A1FF" offset="1%"></stop>
            <stop stop-color="#00BEFF" offset="26%"></stop>
            <stop stop-color="#00D2FF" offset="51%"></stop>
            <stop stop-color="#00DFFF" offset="76%"></stop>
            <stop stop-color="#00E3FF" offset="100%"></stop>
        </linearGradient>
        <linearGradient x1="107.684729%" y1="50%" x2="-130.640394%" y2="50%" id="linearGradient-2">
            <stop stop-color="#FFE000" offset="0%"></stop>
            <stop stop-color="#FFBD00" offset="41%"></stop>
            <stop stop-color="#FFA500" offset="78%"></stop>
            <stop stop-color="#FF9C00" offset="100%"></stop>
        </linearGradient>
        <linearGradient x1="86.219293%" y1="17.8768889%" x2="-50.1497903%" y2="194.702638%" id="linearGradient-3">
            <stop stop-color="#FF3A44" offset="0%"></stop>
            <stop stop-color="#C31162" offset="100%"></stop>
        </linearGradient>
        <linearGradient x1="-18.7537448%" y1="-54.0521474%" x2="42.1210306%" y2="24.9170664%" id="linearGradient-4">
            <stop stop-color="#32A071" offset="0%"></stop>
            <stop stop-color="#2DA771" offset="7%"></stop>
            <stop stop-color="#15CF74" offset="48%"></stop>
            <stop stop-color="#06E775" offset="80%"></stop>
            <stop stop-color="#00F076" offset="100%"></stop>
        </linearGradient>
    </defs>
    <g id="google" stroke="none" stroke-width="1" fill="none" fill-rule="evenodd">
        <g id="gp">
            <rect id="background" fill="#454545" x="0" y="0" width="130" height="40" rx="6"></rect>
            <g id="en_get" transform="translate(8.000000, 8.000000)" fill-rule="nonzero">
                <path d="M36.1213675,3.98632479 C36.1536657,4.68320868 35.8987986,5.36285435 35.4162393,5.86666667 C34.877004,6.42682354 34.1248993,6.73108409 33.3478632,6.7034188 C32.1560464,6.69409114 31.0859513,5.97122888 30.6323598,4.8690632 C30.1787684,3.76689751 30.4300761,2.50021769 31.2700855,1.65470085 C31.8158857,1.09748595 32.5680656,0.79116835 33.3478632,0.808547009 C33.7453277,0.807222714 34.1388628,0.887209532 34.5042735,1.04358974 C34.8444786,1.18081104 35.1473354,1.3966771 35.3880342,1.67350427 L34.8897436,2.17179487 C34.5093004,1.71926845 33.9381823,1.47201611 33.3478632,1.5042735 C32.7544738,1.50136262 32.1855105,1.74033883 31.7721706,2.16609663 C31.3588308,2.59185443 31.1367959,3.16764028 31.157265,3.76068376 C31.1446685,4.65684501 31.6724566,5.47258415 32.4950655,5.82836251 C33.3176744,6.18414086 34.2735486,6.01008565 34.9179487,5.38717949 C35.2072482,5.0736669 35.3741037,4.66653968 35.3880342,4.24017094 L33.3478632,4.24017094 L33.3478632,3.56324786 L36.0837607,3.56324786 C36.108838,3.70287653 36.1214234,3.84446206 36.1213675,3.98632479 Z M40.4273504,1.63589744 L37.8888889,1.63589744 L37.8888889,3.42222222 L40.2017094,3.42222222 L40.2017094,4.0991453 L37.8888889,4.0991453 L37.8888889,5.88547009 L40.4273504,5.88547009 L40.4273504,6.58119658 L37.1367521,6.58119658 L37.1367521,0.94017094 L40.4273504,0.94017094 L40.4273504,1.63589744 Z M43.5111111,6.58119658 L42.7871795,6.58119658 L42.7871795,1.63589744 L41.2076923,1.63589744 L41.2076923,0.94017094 L45.1282051,0.94017094 L45.1282051,1.63589744 L43.5111111,1.63589744 L43.5111111,6.58119658 Z M47.8923077,6.58119658 L47.8923077,0.94017094 L48.6162393,0.94017094 L48.6162393,6.58119658 L47.8923077,6.58119658 Z M51.8316239,6.58119658 L51.1076923,6.58119658 L51.1076923,1.63589744 L49.5282051,1.63589744 L49.5282051,0.94017094 L53.4017094,0.94017094 L53.4017094,1.63589744 L51.8316239,1.63589744 L51.8316239,6.58119658 Z M60.7444444,5.84786325 C59.6002469,6.98568433 57.7518899,6.98568433 56.6076923,5.84786325 C55.4985434,4.67380962 55.4985434,2.83815619 56.6076923,1.66410256 C57.1548703,1.11292424 57.899408,0.802936977 58.6760684,0.802936977 C59.4527287,0.802936977 60.1972664,1.11292424 60.7444444,1.66410256 C61.8583266,2.83626994 61.8583266,4.67569587 60.7444444,5.84786325 Z M57.1435897,5.37777778 C57.9909883,6.22164237 59.3611484,6.22164237 60.208547,5.37777778 C61.0407847,4.46033184 61.0407847,3.06103568 60.208547,2.14358974 C59.3611484,1.29972515 57.9909883,1.29972515 57.1435897,2.14358974 C56.311352,3.06103568 56.311352,4.46033184 57.1435897,5.37777778 Z M62.5965812,6.58119658 L62.5965812,0.94017094 L63.4803419,0.94017094 L66.225641,5.33076923 L66.225641,0.94017094 L66.9495726,0.94017094 L66.9495726,6.58119658 L66.1974359,6.58119658 L63.3299145,1.98376068 L63.3299145,6.58119658 L62.5965812,6.58119658 Z" id="Shape" stroke="#FFFFFF" stroke-width="0.2" fill="#FFFFFF"></path>
                <path d="M55.6017094,14.8076923 C53.3974081,14.8180656 51.6178985,16.6115806 51.6248059,18.8158955 C51.6317134,21.0202103 53.4224281,22.8025377 55.6267512,22.7990962 C57.8310742,22.7956547 59.6162149,21.0077445 59.6162393,18.8034188 C59.6317267,17.735736 59.2131237,16.7075049 58.4563083,15.9542342 C57.6994928,15.2009635 56.6693077,14.7871925 55.6017094,14.8076923 Z M55.6017094,21.2290598 C54.6081625,21.2985434 53.6731113,20.7536281 53.2437807,19.8549408 C52.8144501,18.9562536 52.9781021,17.8864539 53.6564636,17.1572152 C54.3348252,16.4279765 55.3900185,16.1875176 56.3173561,16.5508473 C57.2446937,16.914177 57.855693,17.8074481 57.8581197,18.8034188 C57.8887154,19.4264437 57.6663555,20.035412 57.2414995,20.4921323 C56.8166434,20.9488525 56.2253174,21.2145966 55.6017094,21.2290598 Z M46.8487179,14.8076923 C44.6431705,14.8128818 42.8589404,16.604121 42.8623981,18.8096719 C42.8658557,21.0152228 44.6556933,22.8008588 46.8612462,22.799133 C49.0667991,22.7974072 50.85384,21.0089724 50.8538462,18.8034188 C50.8693336,17.735736 50.4507306,16.7075049 49.6939151,15.9542342 C48.9370996,15.2009635 47.9069145,14.7871925 46.8393162,14.8076923 L46.8487179,14.8076923 Z M46.8487179,21.2290598 C45.8546524,21.3024618 44.916875,20.7602636 44.4845187,19.8621421 C44.0521625,18.9640206 44.2132522,17.8928271 44.8906365,17.1615921 C45.5680209,16.4303571 46.6237891,16.187955 47.5522985,16.5504803 C48.4808078,16.9130056 49.0930202,17.8066506 49.0957265,18.8034188 C49.1263223,19.4264437 48.9039624,20.035412 48.4791063,20.4921323 C48.0542502,20.9488525 47.4629242,21.2145966 46.8393162,21.2290598 L46.8487179,21.2290598 Z M36.4222222,16.0393162 L36.4222222,17.7316239 L40.4837607,17.7316239 C40.4200767,18.5287044 40.0887428,19.2808324 39.5435897,19.865812 C38.7219019,20.7027753 37.5847842,21.1535246 36.4128205,21.1068376 C33.9204586,21.1068376 31.9,19.086379 31.9,16.5940171 C31.9,14.1016551 33.9204586,12.0811966 36.4128205,12.0811966 C37.5577567,12.0625237 38.6633659,12.4986815 39.4871795,13.2940171 L40.6811966,12.1 C39.5576167,10.9622598 38.0211883,10.3280167 36.4222222,10.3418803 C34.1460315,10.2532965 32.0037888,11.4171273 30.83935,13.3749254 C29.6749111,15.3327236 29.6749111,17.7706952 30.83935,19.7284934 C32.0037888,21.6862915 34.1460315,22.8501223 36.4222222,22.7615385 C38.0503774,22.8351109 39.6307819,22.2008922 40.7564103,21.0222222 C41.7414045,19.9400118 42.2673055,18.5173823 42.2230769,17.0547009 C42.2261107,16.698365 42.1946247,16.3425729 42.1290598,15.9923077 L36.4222222,16.0393162 Z M79.0213675,17.3555556 C78.5193911,15.8787445 77.1578808,14.8650926 75.5991453,14.8076923 C74.559658,14.8056599 73.5656919,15.2339729 72.8532627,15.990929 C72.1408334,16.7478851 71.7734915,17.7659619 71.8384615,18.8034188 C71.8153718,19.8651502 72.2250264,20.8906249 72.9732969,21.6442149 C73.7215675,22.397805 74.7441146,22.8147134 75.8059829,22.7991453 C77.1418327,22.806346 78.3920579,22.1423847 79.134188,21.0316239 L77.7709402,20.091453 C77.3570262,20.7814841 76.6106341,21.2028921 75.8059829,21.2008547 C74.9726073,21.2326185 74.2045345,20.7516409 73.8692308,19.9880342 L79.2188034,17.7786325 L79.0213675,17.3555556 Z M73.5683761,18.6905983 C73.5298779,18.1031459 73.7294515,17.5249226 74.1221054,17.0862823 C74.5147593,16.6476419 75.0674413,16.3855075 75.6555556,16.3589744 C76.2754759,16.3181254 76.859977,16.6510691 77.1410256,17.2051282 L73.5683761,18.6905983 Z M69.2247863,22.5641026 L70.982906,22.5641026 L70.982906,10.8119658 L69.2247863,10.8119658 L69.2247863,22.5641026 Z M66.3478632,15.7008547 L66.2820513,15.7008547 C65.7461182,15.1016619 64.9799683,14.7596307 64.1760684,14.7606838 C62.0420184,14.8641699 60.3649323,16.6245535 60.3649323,18.7611111 C60.3649323,20.8976688 62.0420184,22.6580523 64.1760684,22.7615385 C64.9825742,22.7750992 65.7536902,22.430851 66.2820513,21.8213675 L66.3384615,21.8213675 L66.3384615,22.3948718 C66.3384615,23.9273504 65.5205128,24.7452991 64.2042735,24.7452991 C63.3076353,24.7243121 62.5126504,24.1633648 62.1923077,23.325641 L60.6598291,23.9649573 C61.2499571,25.4004206 62.6522683,26.3340548 64.2042735,26.3247863 C66.2632479,26.3247863 67.9649573,25.1119658 67.9649573,22.1598291 L67.9649573,15.042735 L66.3478632,15.042735 L66.3478632,15.7008547 Z M64.3358974,21.2290598 C63.0787832,21.1182699 62.1146273,20.0654056 62.1146273,18.8034188 C62.1146273,17.541432 63.0787832,16.4885677 64.3358974,16.3777778 C64.9433603,16.4089515 65.5125081,16.6840574 65.9143032,17.1407232 C66.3160983,17.597389 66.5165045,18.1969304 66.4700855,18.8034188 C66.5219216,19.412696 66.3221566,20.0166447 65.917237,20.4748431 C65.5123174,20.9330416 64.9375226,21.2055685 64.3264957,21.2290598 L64.3358974,21.2290598 Z M87.257265,10.8119658 L83.0547009,10.8119658 L83.0547009,22.5641026 L84.8128205,22.5641026 L84.8128205,18.1076923 L87.2666667,18.1076923 C88.6324379,18.2058121 89.938608,17.5327862 90.6514044,16.3636498 C91.3642007,15.1945134 91.3642007,13.7251447 90.6514044,12.5560083 C89.938608,11.3868719 88.6324379,10.713846 87.2666667,10.8119658 L87.257265,10.8119658 Z M87.257265,16.4529915 L84.8034188,16.4529915 L84.8034188,12.4478632 L87.2948718,12.4478632 C88.408646,12.4478632 89.3115385,13.3507557 89.3115385,14.4645299 C89.3115385,15.5783042 88.408646,16.4811966 87.2948718,16.4811966 L87.257265,16.4529915 Z M98.0974359,14.7606838 C96.789388,14.6824982 95.5596201,15.3878605 94.9666667,16.5564103 L96.5273504,17.2051282 C96.841749,16.6256709 97.4685788,16.2864454 98.125641,16.3401709 C98.5764793,16.2875163 99.0295718,16.418177 99.3831463,16.7028044 C99.7367207,16.9874319 99.9611354,17.4021644 100.005983,17.8538462 L100.005983,17.9760684 C99.4413092,17.6770932 98.8115825,17.5220835 98.1726496,17.5247863 C96.4897436,17.5247863 94.7880342,18.4649573 94.7880342,20.1666667 C94.8215867,20.8997262 95.150226,21.5880448 95.6991833,22.0750232 C96.2481407,22.5620015 96.9707333,22.8062273 97.7025641,22.7521368 C98.6044035,22.8168986 99.4696803,22.3842602 99.9589744,21.6239316 L100.015385,21.6239316 L100.015385,22.5641026 L101.707692,22.5641026 L101.707692,18.0418803 C101.707692,15.982906 100.147009,14.7888889 98.1444444,14.7888889 L98.0974359,14.7606838 Z M97.8811966,21.2008547 C97.3076923,21.2008547 96.508547,20.9094017 96.508547,20.2042735 C96.508547,19.2641026 97.5051282,18.9538462 98.3888889,18.9538462 C98.9473899,18.940065 99.4993538,19.0764326 99.9871795,19.3487179 C99.8656117,20.4011594 98.9873299,21.2032432 97.9282051,21.2290598 L97.8811966,21.2008547 Z M107.875214,15.042735 L105.863248,20.1384615 L105.806838,20.1384615 L103.719658,15.042735 L101.839316,15.042735 L104.970085,22.1692308 L103.183761,26.1273504 L105.017094,26.1273504 L109.830769,15.042735 L107.875214,15.042735 Z M92.0709402,22.5641026 L93.8290598,22.5641026 L93.8290598,10.8119658 L92.0709402,10.8119658 L92.0709402,22.5641026 Z" id="Shape" fill="#FFFFFF"></path>
                <path d="M1.35384615,1.44786325 C1.0474115,1.81557194 0.892742748,2.28630292 0.921367521,2.76410256 L0.921367521,23.5606838 C0.892742748,24.0384834 1.0474115,24.5092144 1.35384615,24.8769231 L1.41965812,24.942735 L13.0683761,13.3034188 L13.0683761,13.0307692 L1.41965812,1.38205128 L1.35384615,1.44786325 Z" id="Shape" fill="url(#linearGradient-1)"></path>
                <path d="M16.9230769,17.1863248 L13.0683761,13.3034188 L13.0683761,13.0307692 L16.9230769,9.13846154 L17.0076923,9.18547009 L21.6239316,11.808547 C22.9401709,12.5512821 22.9401709,13.7735043 21.6239316,14.525641 L17.0264957,17.1393162 L16.9230769,17.1863248 Z" id="Shape" fill="url(#linearGradient-2)"></path>
                <path d="M17.0358974,17.1299145 L13.0683761,13.1623932 L1.35384615,24.8769231 C1.90734146,25.3634826 2.72877937,25.3871779 3.30940171,24.9333333 L17.0452991,17.1299145" id="Shape" fill="url(#linearGradient-3)"></path>
                <path d="M17.0358974,9.19487179 L3.3,1.39145299 C2.71937766,0.937608402 1.89793975,0.961303726 1.34444444,1.44786325 L13.0683761,13.1623932 L17.0358974,9.19487179 Z" id="Shape" fill="url(#linearGradient-4)"></path>
                <path d="M16.9230769,17.0452991 L3.3,24.8017094 C2.74251486,25.2185214 1.97714326,25.2185214 1.41965812,24.8017094 L1.35384615,24.8675214 L1.41965812,24.9333333 C1.97609433,25.3532882 2.74356379,25.3532882 3.3,24.9333333 L17.0358974,17.1299145 L16.9230769,17.0452991 Z" id="Shape" fill="#000000" opacity="0.2"></path>
                <path d="M1.35384615,24.7452991 C1.0474115,24.3775905 0.892742748,23.9068595 0.921367521,23.4290598 L0.921367521,23.5700855 C0.892742748,24.0478851 1.0474115,24.5186161 1.35384615,24.8863248 L1.41965812,24.8205128 L1.35384615,24.7452991 Z M21.6239316,14.3846154 L16.9230769,17.0452991 L17.0076923,17.1299145 L21.6239316,14.5162393 C22.1570745,14.2657902 22.5156541,13.7494356 22.5641026,13.1623932 C22.4569508,13.6934374 22.1097235,14.1448328 21.6239316,14.3846154 Z" id="Shape" fill="#000000" opacity="0.12"></path>
                <path d="M3.3,1.52307692 L21.6239316,11.9401709 C22.1097235,12.1799535 22.4569508,12.6313489 22.5641026,13.1623932 C22.5156541,12.5753507 22.1570745,12.0589961 21.6239316,11.808547 L3.3,1.39145299 C1.98376068,0.648717949 0.911965812,1.26923077 0.911965812,2.77350427 L0.911965812,2.91452991 C0.94017094,1.4008547 1.99316239,0.78034188 3.3,1.52307692 Z" id="Shape" fill="#FFFFFF" opacity="0.25"></path>
            </g>
        </g>
    </g>
</svg>