<?xml version="1.0" encoding="UTF-8"?>
<svg width="457px" height="438px" viewBox="0 0 457 438" version="1.1" xmlns="http://www.w3.org/2000/svg" xmlns:xlink="http://www.w3.org/1999/xlink">
    <!-- Generator: Sketch 41.2 (35397) - http://www.bohemiancoding.com/sketch -->
    <title>unicorn-horse-head-with-a-horn-and-wings</title>
    <desc>Created with Sketch.</desc>
    <defs></defs>
    <g id="Page-3" stroke="none" stroke-width="1" fill="none" fill-rule="evenodd">
        <g id="Group" transform="translate(-396.000000, -975.000000)" fill="#FFFFFF">
            <g id="unicorn-horse-head-with-a-horn-and-wings" transform="translate(620.756478, 1217.668550) rotate(-18.000000) translate(-620.756478, -1217.668550) translate(370.756478, 991.168550)">
                <g id="Capa_1" transform="translate(0.000000, 0.000000)">
                    <path d="M499.313399,189.111566 C500.035778,197.289932 499.369688,205.025021 497.678664,213.088464 C496.956284,217.108458 495.558433,221.121416 493.75483,225.253989 C491.772978,229.327928 423.16906,228.300979 421.588269,223.774381 C420.185727,219.17273 417.24594,219.362375 416.664284,214.988228 L416.497762,213.794425 C416.844879,212.340285 416.692429,210.16142 416.303094,209.052051 C415.916105,207.820723 415.416538,207.180432 414.499491,206.558904 C413.558991,205.963176 411.896111,205.491753 409.95413,205.651239 C407.763538,205.789617 404.339272,205.850597 401.857852,205.707529 C391.071414,205.151672 380.4257,202.496693 370.708759,197.784809 C365.78579,195.441767 361.545329,192.162915 356.88739,189.224144 C352.3819,186.20094 347.583237,183.034666 343.577315,178.84815 C339.723843,174.675705 336.480172,169.752736 334.012824,164.637446 C333.846301,164.339582 333.764213,164.027645 333.62349,163.757926 C331.601765,165.392661 329.575351,167.05085 327.692004,168.784091 C322.31403,173.198111 317.379335,178.085899 312.360205,182.938506 C307.533398,187.964671 302.988036,193.274629 298.855463,198.922322 C294.933975,204.633341 290.897563,210.478047 287.958792,216.841084 C284.49231,223.030562 282.275918,229.698499 279.698337,236.338291 C277.951023,243.172751 275.734632,250.0635 275.122486,257.242731 C273.764506,264.368019 273.792651,271.605885 273.583912,278.89535 C273.405662,286.243449 274.681553,293.507115 275.20692,300.965447 L272.931894,301.518959 C271.18458,294.229494 268.663288,287.017427 267.525775,279.462934 L265.959056,268.083113 C265.166315,264.227295 265.694028,260.427768 265.541577,256.548496 C265.166315,248.757119 266.414062,241.075974 267.345181,233.284596 C269.062004,225.694922 270.520835,217.842564 273.581566,210.590626 C276.105203,203.078349 279.766353,196.049222 283.467375,189.027132 C287.377136,182.124656 291.840409,175.581025 296.650799,169.236751 C301.531551,162.941731 306.937669,157.127515 312.815211,151.763613 C318.873347,146.411439 324.947901,141.837933 332.804949,137.864846 L346.473868,130.849792 L348.277472,144.961989 C349.121811,149.286884 349.121811,154.015185 350.453991,158.201702 C351.300676,162.707192 353.310673,166.581772 354.903192,170.913703 C356.828755,174.982951 358.937258,179.286737 362.15513,182.823582 C365.537179,186.128233 369.80813,188.354006 374.172896,190.155263 C382.977482,193.67569 392.584189,195.33857 402.066591,195.12514 C404.686389,195.06885 406.309398,194.944545 409.163734,194.604464 C412.215084,194.271419 415.817599,194.320672 419.490476,195.795921 C423.177426,197.252406 426.465659,200.51015 428.032378,203.941452 C429.641314,207.518168 430.333203,210.513228 430.248769,214.559022 L430.194825,212.867997 C431.857705,219.939341 479.326005,212.286341 480.463518,208.613464 C482.321065,202.651489 483.80335,196.107857 485.550664,189.850363 C473.420319,167.745084 456.355279,147.755346 439.123716,128.436388 C430.112737,118.482563 419.910301,109.638106 410.066709,100.545038 C400.112884,91.5270226 389.964391,82.5981319 379.677521,74.1500456 L377.737886,72.5762905 L377.266463,68.7579995 C376.075006,58.3820046 372.108955,49.4812585 365.703702,41.926765 C362.460031,38.1835263 358.690993,34.8554212 354.476331,31.9659037 C354.22772,31.8064173 353.976763,31.6680395 353.71408,31.5085531 C353.310673,35.7630863 352.951829,40.1231619 352.675073,44.4292936 C351.926895,53.8694788 351.53756,63.6216006 351.345239,73.1040028 L351.204515,79.7015782 L345.465352,82.0305481 C336.400429,85.7174974 327.305015,89.7093472 319.211083,95.547017 C311.08666,101.251 302.990382,107.386534 295.947183,114.767469 C281.724752,129.318254 269.524046,146.561543 260.250383,165.472404 L258.073863,164.731261 C263.092993,143.75646 272.739572,123.82301 286.199752,106.30531 C297.982979,90.1901517 314.105174,77.1310333 332.307727,67.6767758 C332.045044,59.5875338 331.852722,51.5803805 332.016899,43.4442308 C332.460177,33.2957385 332.739278,23.515472 335.232426,12.3420454 L337.978874,0.052214178 L349.372768,4.98690976 C353.141805,6.62164494 355.693587,8.08516682 358.662848,9.85827987 C361.517185,11.577449 364.289433,13.4091967 366.869359,15.5364633 C372.052666,19.7909965 376.792694,24.6928566 380.800962,30.2162445 C388.507906,40.3506645 391.974389,53.707647 391.183993,66.1006753 C392.609989,67.4516186 393.984386,68.8658873 395.398654,70.2309029 L433.872245,46.6525344 L445.473422,61.532651 L417.079418,91.5223318 C426.838576,101.558246 436.388994,111.706738 445.95583,121.960773 C465.04494,141.397 483.191204,161.733856 498.469059,185.370673 L499.425977,186.874066 L499.313399,189.111566 Z M342.384279,301.792386 C338.176394,291.497269 334.670818,280.583651 332.48232,269.605723 C331.400009,264.105411 330.717595,258.480264 330.705658,252.885379 C330.729532,247.379393 331.471632,241.502683 335.020978,236.830823 C330.799166,241.010909 329.129939,247.042716 328.318205,252.745413 C327.4249,258.537007 327.707416,264.394802 328.178937,270.163699 C329.285124,281.780933 331.658649,293.038794 334.951344,304.351506 C343.701357,325.134667 342.455903,348.064614 336.761829,369.507888 C333.986415,380.30802 329.989422,390.88307 325.447294,401.180078 C323.083716,406.391 320.543069,411.622727 317.827342,416.720162 L314.721664,410.09066 L303.3176,388.84977 C295.060994,375.010091 286.121974,361.469261 275.843991,348.736076 C255.783423,323.001121 230.575904,300.451354 201.265947,283.748032 C172.019655,266.967162 138.491866,257.247044 104.747216,254.496887 C87.8420631,253.339325 70.8732452,253.787597 54.2108171,255.977886 C37.4707967,258.196547 21.2779008,261.601142 5.1128586,267.483526 L0.600573578,269.112057 C0.600573578,269.112057 41.5095703,269.69273 55.6512467,268.686483 C71.5098992,267.50244 87.4899139,268.037718 103.119769,270.006709 C118.795383,271.828167 134.236232,275.13819 149.036447,280.089984 C163.812788,285.10987 178.05991,291.436743 191.459487,299.206785 C204.777492,307.088422 217.241983,316.244891 228.848981,326.373561 C234.294362,331.81713 240.314721,336.681918 245.405963,342.473512 C250.791658,347.971933 255.894837,353.742722 260.657805,359.801009 C270.525941,371.630085 278.979512,384.554306 287.283867,397.544727 L298.878928,417.55618 L309.296178,438.240985 L316.575919,452.606485 L324.396815,439.124289 C330.675815,428.36766 335.381085,417.646969 339.624782,406.445852 C343.786907,395.26554 347.268609,383.86393 349.514804,372.144557 C351.794821,360.461122 352.950745,348.444794 352.160897,336.392528 C351.486441,324.476445 348.335004,312.469574 342.384279,301.792386 Z M222.181815,275.017816 C222.181815,275.017816 222.000143,271.421881 221.640555,265.095845 C221.396461,261.982835 221.096929,258.246084 220.75912,253.958692 C220.157984,249.676299 220.880466,244.769722 220.600914,239.54889 C220.649009,234.291255 220.170861,228.628298 221.098607,222.666334 C221.948882,216.732412 222.012504,210.436236 223.309172,204.084045 C224.712286,197.802884 225.350469,191.131795 227.396369,184.675973 C229.261552,178.198157 230.818119,171.501948 233.592397,165.190894 C237.809394,152.112155 244.672005,140.089772 250.896482,128.721573 C257.815585,117.825272 264.317952,107.385428 271.265549,99.4680837 C284.35978,82.9277539 295.111357,73.1947117 295.111357,73.1947117 C295.111357,73.1947117 291.774854,74.6617624 286.437537,78.0950944 C281.242512,81.6335587 273.525231,86.5787246 265.622849,94.1497281 C249.376572,108.613613 230.652606,132.307814 220.611471,160.396504 C217.756691,167.23175 216.222587,174.519259 214.383791,181.584895 C212.21054,188.553182 212.287264,195.853417 211.187413,202.677347 C210.12033,209.48764 211.013327,216.272925 210.981377,222.524192 C210.853433,228.852172 212.10916,234.743839 212.811046,240.14531 C213.663993,245.530587 214.047214,250.522107 215.643272,254.729733 C216.948492,258.930304 218.065914,262.6203 219.004143,265.668723 C221.024202,271.576547 222.181815,275.017816 222.181815,275.017816 Z M412.94919,132.529089 C416.110773,129.158767 411.145587,122.859056 404.130533,116.07385 C397.087334,109.302715 388.880822,104.546269 388.880822,104.546269 C388.880822,104.546269 391.209792,123.185065 398.281136,129.970271 C405.293845,136.717951 409.787608,135.892375 412.94919,132.529089 Z" id="Shape"></path>
                </g>
            </g>
        </g>
    </g>
</svg>